<svg width="22" height="22" viewBox="0 0 22 22" fill="none" xmlns="http://www.w3.org/2000/svg">
<path d="M6.28571 2.34597C6.28571 1.05235 5.22835 0 3.92857 0H0V1.56398H3.92857C4.36208 1.56398 4.71429 1.91452 4.71429 2.34597C4.71429 2.68718 4.71429 16.7314 4.71429 16.5261C4.71429 17.8197 5.77165 18.872 7.07143 18.872H8.00187C7.91382 19.1178 7.85714 19.3786 7.85714 19.654C7.85714 20.9476 8.91451 22 10.2143 22C11.5141 22 12.5714 20.9476 12.5714 19.654C12.5714 19.3786 12.5148 19.1178 12.4267 18.872H15.859C15.771 19.1178 15.7143 19.3786 15.7143 19.654C15.7143 20.9476 16.7716 22 18.0714 22C19.3712 22 20.4286 20.9476 20.4286 19.654C20.4286 19.3786 20.3719 19.1178 20.2838 18.872H22V17.3081H7.07143C6.63792 17.3081 6.28571 16.9575 6.28571 16.5261V15.6672L18.3976 14.416C20.4178 14.2488 22 12.5374 22 10.5199V4.69194H6.28571V2.34597ZM11 19.654C11 20.0855 10.6478 20.436 10.2143 20.436C9.78078 20.436 9.42857 20.0855 9.42857 19.654C9.42857 19.2226 9.78078 18.872 10.2143 18.872C10.6478 18.872 11 19.2226 11 19.654ZM18.8571 19.654C18.8571 20.0855 18.5049 20.436 18.0714 20.436C17.6379 20.436 17.2857 20.0855 17.2857 19.654C17.2857 19.2226 17.6379 18.872 18.0714 18.872C18.5049 18.872 18.8571 19.2226 18.8571 19.654Z" fill="#2B2C7E"/>
<path d="M3.92857 1.15753H0.406453V0.406453H3.92857C5.0057 0.406453 5.87926 1.27865 5.87926 2.34597V4.69194V5.0984H6.28571H21.5935V10.5199C21.5935 12.3244 20.1751 13.8611 18.364 14.011L18.364 14.0109L18.3558 14.0117L6.24395 15.2629L5.87926 15.3006V15.6672V16.5261C5.87926 17.1838 6.41527 17.7145 7.07143 17.7145H21.5935V18.4656H20.2838H19.7065L19.9012 19.0091C19.9772 19.2212 20.0221 19.4351 20.0221 19.654C20.0221 20.7214 19.1486 21.5935 18.0714 21.5935C16.9943 21.5935 16.1207 20.7214 16.1207 19.654C16.1207 19.4351 16.1657 19.2212 16.2417 19.0091L16.4364 18.4656H15.859H12.4267H11.8494L12.0441 19.0091C12.12 19.2212 12.165 19.4351 12.165 19.654C12.165 20.7214 11.2914 21.5935 10.2143 21.5935C9.13716 21.5935 8.2636 20.7214 8.2636 19.654C8.2636 19.4351 8.30854 19.2212 8.38451 19.0091L8.57921 18.4656H8.00187H7.07143C5.9943 18.4656 5.12074 17.5934 5.12074 16.5261V16.5254V16.5238V16.522V16.5198V16.5174V16.5146V16.5115V16.5081V16.5044V16.5004V16.4961V16.4915V16.4866V16.4813V16.4758V16.47V16.4639V16.4575V16.4508V16.4438V16.4365V16.4289V16.421V16.4128V16.4044V16.3957V16.3866V16.3773V16.3677V16.3579V16.3477V16.3373V16.3266V16.3156V16.3044V16.2928V16.281V16.269V16.2566V16.244V16.2311V16.218V16.2046V16.1909V16.177V16.1628V16.1483V16.1336V16.1186V16.1034V16.0879V16.0722V16.0562V16.0399V16.0234V16.0067V15.9897V15.9725V15.955V15.9373V15.9193V15.9011V15.8826V15.864V15.845V15.8259V15.8065V15.7869V15.767V15.7469V15.7266V15.706V15.6853V15.6643V15.643V15.6216V15.5999V15.578V15.5559V15.5336V15.511V15.4882V15.4653V15.4421V15.4187V15.395V15.3712V15.3472V15.3229V15.2985V15.2738V15.249V15.2239V15.1986V15.1732V15.1475V15.1216V15.0956V15.0693V15.0429V15.0163V14.9894V14.9624V14.9352V14.9078V14.8802V14.8525V14.8245V14.7964V14.7681V14.7396V14.7109V14.6821V14.653V14.6238V14.5945V14.5649V14.5352V14.5053V14.4752V14.445V14.4146V14.3841V14.3534V14.3225V14.2914V14.2602V14.2289V14.1974V14.1657V14.1338V14.1019V14.0697V14.0374V14.005V13.9724V13.9397V13.9068V13.8738V13.8406V13.8073V13.7739V13.7403V13.7065V13.6727V13.6387V13.6045V13.5702V13.5358V13.5013V13.4666V13.4318V13.3969V13.3619V13.3267V13.2914V13.256V13.2204V13.1848V13.149V13.1131V13.0771V13.041V13.0047V12.9684V12.9319V12.8953V12.8586V12.8218V12.785V12.7479V12.7108V12.6736V12.6363V12.5989V12.5614V12.5238V12.4861V12.4483V12.4104V12.3724V12.3343V12.2962V12.2579V12.2196V12.1812V12.1426V12.104V12.0654V12.0266V11.9878V11.9488V11.9099V11.8708V11.8316V11.7924V11.7531V11.7138V11.6743V11.6348V11.5952V11.5556V11.5159V11.4761V11.4363V11.3964V11.3565V11.3165V11.2764V11.2363V11.1961V11.1559V11.1156V11.0752V11.0349V10.9944V10.9539V10.9134V10.8728V10.8322V10.7916V10.7509V10.7101V10.6694V10.6285V10.5877V10.5468V10.5059V10.4649V10.4239V10.3829V10.3419V10.3008V10.2597V10.2186V10.1774V10.1363V10.0951V10.0539V10.0127V9.97141V9.93014V9.88887V9.84758V9.80627V9.76496V9.72363V9.6823V9.64096V9.59961V9.55826V9.5169V9.47555V9.43419V9.39283V9.35147V9.31011V9.26876V9.22741V9.18607V9.14474V9.10341V9.0621V9.0208V8.97951V8.93823V8.89697V8.85572V8.81449V8.77328V8.73209V8.69092V8.64978V8.60865V8.56756V8.52649V8.48544V8.44443V8.40344V8.36249V8.32157V8.28068V8.23983V8.19901V8.15823V8.11749V8.07679V8.03613V7.99552V7.95495V7.91442V7.87394V7.8335V7.79312V7.75278V7.7125V7.67227V7.63209V7.59197V7.5519V7.51189V7.47194V7.43205V7.39222V7.35245V7.31275V7.27311V7.23354V7.19404V7.1546V7.11524V7.07594V7.03672V6.99757V6.9585V6.9195V6.88058V6.84174V6.80298V6.7643V6.7257V6.68719V6.64876V6.61042V6.57216V6.534V6.49592V6.45794V6.42004V6.38224V6.34454V6.30693V6.26942V6.23201V6.1947V6.15749V6.12038V6.08338V6.04648V6.00969V5.973V5.93642V5.89996V5.8636V5.82736V5.79123V5.75521V5.71931V5.68353V5.64787V5.61233V5.57691V5.54161V5.50643V5.47139V5.43646V5.40167V5.367V5.33246V5.29805V5.26378V5.22964V5.19563V5.16177V5.12803V5.09444V5.06099V5.02768V4.99451V4.96148V4.9286V4.89586V4.86328V4.83084V4.79855V4.76641V4.73443V4.7026V4.67092V4.6394V4.60804V4.57684V4.54579V4.51491V4.48419V4.45363V4.42324V4.39301V4.36296V4.33307V4.30335V4.2738V4.24442V4.21522V4.18619V4.15734V4.12867V4.10017V4.07186V4.04373V4.01577V3.98801V3.96042V3.93303V3.90582V3.8788V3.85197V3.82533V3.79888V3.77263V3.74657V3.72071V3.69504V3.66958V3.64431V3.61924V3.59438V3.56972V3.54527V3.52102V3.49698V3.47315V3.44953V3.42612V3.40292V3.37993V3.35716V3.33461V3.31228V3.29016V3.26826V3.24658V3.22513V3.2039V3.1829V3.16212V3.14156V3.12124V3.10115V3.08129V3.06166V3.04226V3.0231V3.00418V2.98549V2.96704V2.94883V2.93086V2.91314V2.89566V2.87842V2.86143V2.84469V2.82819V2.81195V2.79595V2.78021V2.76473V2.74949V2.73452V2.7198V2.70534V2.69114V2.6772V2.66352V2.65011V2.63696V2.62408V2.61146V2.59912V2.58704V2.57524V2.56371V2.55245V2.54146V2.53076V2.52032V2.51017V2.5003V2.49071V2.4814V2.47238V2.46364V2.45518V2.44702V2.43914V2.43155V2.42426V2.41725V2.41054V2.40413V2.39801V2.39218V2.38666V2.38144V2.37652V2.3719V2.36758V2.36357V2.35986V2.35646V2.35338V2.3506V2.34813V2.34597C5.12074 1.68823 4.58473 1.15753 3.92857 1.15753ZM10.2143 20.8425C10.8704 20.8425 11.4065 20.3118 11.4065 19.654C11.4065 18.9963 10.8704 18.4656 10.2143 18.4656C9.55813 18.4656 9.02212 18.9963 9.02212 19.654C9.02212 20.3118 9.55813 20.8425 10.2143 20.8425ZM18.0714 20.8425C18.7276 20.8425 19.2636 20.3118 19.2636 19.654C19.2636 18.9963 18.7276 18.4656 18.0714 18.4656C17.4153 18.4656 16.8793 18.9963 16.8793 19.654C16.8793 20.3118 17.4153 20.8425 18.0714 20.8425Z" stroke="#2B2C7E" stroke-opacity="0.25" stroke-width="0.812906"/>
</svg>
