<svg width="35" height="31" viewBox="0 0 35 31" fill="none" xmlns="http://www.w3.org/2000/svg">
<path fill-rule="evenodd" clip-rule="evenodd" d="M3.92857 9C5.22835 9 6.28571 10.0524 6.28571 11.346V13.6919H15.7036C16.8086 16.4719 19.1244 18.639 21.9999 19.5422C21.9883 21.5501 20.4104 23.2494 18.3976 23.416L6.28571 24.6672V25.5261C6.28571 25.9575 6.63792 26.3081 7.07143 26.3081H22V27.872H20.2838C20.3719 28.1178 20.4286 28.3786 20.4286 28.654C20.4286 29.9476 19.3712 31 18.0714 31C16.7716 31 15.7143 29.9476 15.7143 28.654C15.7143 28.3786 15.771 28.1178 15.859 27.872H12.4267C12.5148 28.1178 12.5714 28.3786 12.5714 28.654C12.5714 29.9476 11.5141 31 10.2143 31C8.91451 31 7.85714 29.9476 7.85714 28.654C7.85714 28.3786 7.91382 28.1178 8.00187 27.872H7.07143C5.77165 27.872 4.71429 26.8197 4.71429 25.5261V11.346C4.71429 10.9145 4.36208 10.564 3.92857 10.564H0V9H3.92857ZM10.2143 29.436C10.6478 29.436 11 29.0855 11 28.654C11 28.2226 10.6478 27.872 10.2143 27.872C9.78078 27.872 9.42857 28.2226 9.42857 28.654C9.42857 29.0855 9.78078 29.436 10.2143 29.436ZM18.0714 29.436C18.5049 29.436 18.8571 29.0855 18.8571 28.654C18.8571 28.2226 18.5049 27.872 18.0714 27.872C17.6379 27.872 17.2857 28.2226 17.2857 28.654C17.2857 29.0855 17.6379 29.436 18.0714 29.436Z" fill="#2B2C7E"/>
<circle cx="25" cy="10" r="9" fill="#4866B3"/>
</svg>
