<svg width="15" height="16" viewBox="0 0 15 16" fill="none" xmlns="http://www.w3.org/2000/svg">
<path d="M14.21 9.22865V11.3715C14.21 11.6082 13.9828 11.8001 13.7025 11.8001H12.6876V10.9429C12.6876 10.7062 12.4606 10.5144 12.1801 10.5144C11.8997 10.5144 11.6727 10.7062 11.6727 10.9429V11.8001H9.64283V10.0858C9.64283 9.84908 9.41582 9.65722 9.13536 9.65722C8.8549 9.65722 8.6279 9.84908 8.6279 10.0858V11.8001H6.59804V10.9429C6.59804 10.7062 6.37104 10.5144 6.09058 10.5144C5.81012 10.5144 5.58312 10.7062 5.58312 10.9429V11.8001H3.55326V10.0858C3.55326 9.84908 3.32626 9.65722 3.0458 9.65722C2.76534 9.65722 2.53833 9.84908 2.53833 10.0858V11.8001H0.928997C0.537235 11.1224 0.293991 10.4432 0.15004 9.92379C0.0502388 9.56322 0.00118408 9.18308 0 8.80008H13.7025C13.9828 8.80008 14.21 8.99194 14.21 9.22865Z" fill="white"/>
<path d="M2 12.8001H12.8694C12.101 13.8825 11.145 14.6673 10.058 15.0855C9.0902 15.4587 8.0988 14.8049 7.4212 14.8049C6.6896 14.8049 5.7706 15.4651 4.7838 15.0853C3.5696 14.6181 2.669 13.7647 2 12.8001Z" fill="white"/>
<path d="M14.2092 7.80008H0C0.2986 5.88488 1.316 4.15008 2.9348 3.72168C4.5512 3.29188 5.507 4.13508 6.5772 4.39388C6.5954 4.23528 6.6208 4.06869 6.6548 3.89708C5.9994 3.72229 5.394 3.32209 4.9808 2.71229C4.4026 1.85909 4.3534 0.832685 4.744 0.000484998C5.687 -0.016915 6.639 0.434285 7.2172 1.28749C7.3834 1.53269 7.501 1.79288 7.5818 2.05788C7.9972 1.65808 8.5814 1.34448 9.409 1.20788C9.7418 1.15568 10.0454 1.37508 10.0986 1.70209C10.1526 2.02908 9.9316 2.33788 9.6046 2.39208C8.3826 2.59368 7.9626 3.23508 7.7976 4.37588C8.8586 4.10728 9.7468 3.35149 11.2968 3.71789C12.8172 4.07789 13.8982 5.62528 14.2092 7.80008Z" fill="white"/>
</svg>
