<svg width="17" height="17" viewBox="0 0 17 17" fill="none" xmlns="http://www.w3.org/2000/svg">
<g clip-path="url(#clip0)">
<path fill-rule="evenodd" clip-rule="evenodd" d="M7.66764 10.592C10.2529 11.631 12.3138 11.9658 14.5599 11.7138C14.6789 11.7004 14.8004 11.682 14.9217 11.6635C15.3538 10.3385 15.1573 8.88877 14.388 7.72669C14.3186 7.62229 14.1943 7.5684 14.0707 7.58899C13.947 7.60959 13.847 7.7009 13.8152 7.82215C13.7211 8.23489 13.5129 8.61286 13.2144 8.91304C12.9372 9.19541 12.5235 9.2954 12.148 9.1708C11.1825 8.84908 11.3778 7.89597 11.648 6.57721C11.7435 6.11705 11.8491 5.59514 11.9344 5.00484C11.9978 4.5722 11.9304 4.13047 11.7409 3.73636C11.6897 3.61956 11.5736 3.54464 11.4461 3.54602C11.3185 3.54741 11.2041 3.62484 11.1554 3.74274C11.1085 3.84631 11.0472 3.94275 10.9734 4.02915C10.7258 4.2872 10.3796 4.42671 10.0223 4.41235C9.66501 4.39798 9.33103 4.23112 9.10503 3.95406C8.63277 3.33892 8.62769 2.17643 8.74733 1.15588C8.76617 1.00552 8.67636 0.862745 8.5327 0.814596C8.38903 0.766448 8.23131 0.82628 8.15576 0.957628C7.67846 1.78008 7.5536 2.76044 7.80952 3.67627L7.8579 3.81948C8.3989 5.42176 8.86731 7.17871 8.23596 8.05862C7.9923 8.38862 7.59852 8.57331 7.18898 8.54966C6.71113 8.57285 6.25062 8.36797 5.94788 7.99752C5.7944 7.7989 5.68201 7.57174 5.61724 7.32924C5.58156 7.19181 5.45912 7.09467 5.31719 7.09112C5.17525 7.08757 5.04812 7.17851 5.00562 7.31398C4.74166 8.20884 4.70112 9.15476 4.88757 10.0689C5.80566 9.93774 6.77659 10.2343 7.66764 10.592Z" fill="white"/>
<path fill-rule="evenodd" clip-rule="evenodd" d="M0.89123 9.99916C0.802405 9.89435 0.674519 9.83054 0.537372 9.82255C0.402821 9.81669 0.271242 9.86311 0.170128 9.95208C0.0695321 10.041 0.00860366 10.1665 0.000843356 10.3005C-0.00691695 10.4346 0.0391256 10.5662 0.128759 10.6662C0.816887 11.3642 1.62938 11.9274 2.52438 12.327C2.60438 11.9957 2.73215 11.6777 2.90372 11.3831C2.15881 11.04 1.47816 10.572 0.89123 9.99916Z" fill="white"/>
<path d="M15.2682 12.2513C15.2644 12.2513 15.2603 12.2513 15.2568 12.2532C15.0461 12.2904 14.8361 12.3232 14.6315 12.3461C12.2747 12.6115 10.1206 12.2637 7.43025 11.1827C6.77735 10.8859 6.07497 10.7133 5.35888 10.6735C4.753 10.6591 4.16763 10.8935 3.73908 11.322C3.11321 12.0405 2.91245 13.0358 3.21084 13.9407C3.72351 15.2824 5.5196 16.0598 8.40531 16.1871C11.6773 16.3621 14.8386 14.9757 16.9262 12.4502C17.0159 12.3426 17.0247 12.189 16.9479 12.0719C16.8711 11.9548 16.7268 11.9017 16.5924 11.941C16.1566 12.067 15.7147 12.1705 15.2682 12.2513ZM8.44795 15.5507H8.43332C6.13826 15.4485 4.55092 14.9053 3.96474 14.0232C3.67971 13.5927 3.62724 13.0487 3.82471 12.5717C3.86201 12.4622 3.9558 12.3816 4.06963 12.3611C4.1835 12.3407 4.29947 12.3836 4.37257 12.4733C4.44568 12.5629 4.46434 12.6852 4.42139 12.7926C4.29462 13.0789 4.32232 13.41 4.49489 13.6712C4.95918 14.3713 6.40427 14.8248 8.46194 14.9165C8.63769 14.9203 8.77703 15.0659 8.77316 15.2417C8.76929 15.4174 8.62369 15.5568 8.44792 15.5529V15.5507H8.44795Z" fill="white"/>
</g>
<defs>
<clipPath id="clip0">
<rect width="17" height="17" fill="white"/>
</clipPath>
</defs>
</svg>
