<svg width="12" height="12" viewBox="0 0 12 12" fill="none" xmlns="http://www.w3.org/2000/svg">
<path d="M8.83677 0.390196C8.50027 0.219005 8.08865 0.353141 7.91751 0.68978L2.83282 10.6906C2.66168 11.0272 2.79582 11.4387 3.13241 11.6098C3.23168 11.6603 3.33746 11.6842 3.4417 11.6842C3.69083 11.6842 3.93098 11.5476 4.05167 11.3103L9.13635 1.30946C9.3075 0.972864 9.17336 0.561341 8.83677 0.390196Z" fill="white"/>
<path d="M5.18577 3.68352C5.18577 2.25379 4.02258 1.09059 2.59284 1.09059C1.1632 1.09059 0 2.25379 0 3.68352C0 5.11321 1.1632 6.27641 2.59289 6.27641C4.02262 6.27641 5.18577 5.11321 5.18577 3.68352ZM2.59289 4.90907C1.91715 4.90907 1.36734 4.35926 1.36734 3.68352C1.36734 3.00774 1.91715 2.45793 2.59289 2.45793C3.26867 2.45793 3.81848 3.00769 3.81848 3.68352C3.81843 4.35926 3.26867 4.90907 2.59289 4.90907Z" fill="white"/>
<path d="M9.40708 5.72368C7.97734 5.72368 6.81415 6.88687 6.81415 8.31656C6.81415 9.74625 7.9773 10.9095 9.40708 10.9095C10.8368 10.9095 12 9.7463 12 8.31656C12 6.88683 10.8368 5.72368 9.40708 5.72368ZM9.40708 9.54207C8.7313 9.54207 8.18149 8.99226 8.18149 8.31652C8.18149 7.64078 8.7313 7.09097 9.40708 7.09097C10.0828 7.09097 10.6326 7.64078 10.6326 8.31652C10.6326 8.99226 10.0829 9.54207 9.40708 9.54207Z" fill="white"/>
</svg>
