<svg width="12" height="16" viewBox="0 0 12 16" fill="none" xmlns="http://www.w3.org/2000/svg">
<path d="M9.60393 0.799988C9.60393 0.799988 8.41916 1.94945 7.13782 2.41287C-2.35091 5.84498 1.65089 12.5332 1.78144 12.5552C1.78144 12.5552 2.31353 11.6287 3.03229 11.1002C7.59325 7.74717 8.52025 3.88773 8.52025 3.88773C8.52025 3.88773 7.49678 8.53187 3.43912 11.4216C2.54293 12.0595 1.9361 13.6301 1.67923 15.2C1.67923 15.2 2.31449 14.9433 2.58766 14.8738C2.69419 14.1787 2.91691 13.513 3.29344 12.9184C8.96451 13.5936 10.8219 9.02392 11.0645 7.43052C11.6372 3.66724 9.60393 0.799988 9.60393 0.799988Z" fill="white"/>
</svg>
